<?xml version="1.0" encoding="UTF-8" standalone="no"?>
<svg
   xmlns:dc="http://purl.org/dc/elements/1.1/"
   xmlns:cc="http://creativecommons.org/ns#"
   xmlns:rdf="http://www.w3.org/1999/02/22-rdf-syntax-ns#"
   xmlns:svg="http://www.w3.org/2000/svg"
   xmlns="http://www.w3.org/2000/svg"
   xmlns:sodipodi="http://sodipodi.sourceforge.net/DTD/sodipodi-0.dtd"
   xmlns:inkscape="http://www.inkscape.org/namespaces/inkscape"
   version="1.1"
   id="Layer_1"
   x="0px"
   y="0px"
   width="200px"
   height="200px"
   viewBox="0 0 200 200"
   enable-background="new 0 0 200 200"
   xml:space="preserve"
   inkscape:version="0.48.4 r9939"
   sodipodi:docname="google-favicon-logo.svg"
   inkscape:export-filename="C:\Users\Bogdan\Desktop\google.png"
   inkscape:export-xdpi="22.5"
   inkscape:export-ydpi="22.5"><metadata
   id="metadata41"><rdf:RDF><cc:Work
       rdf:about=""><dc:format>image/svg+xml</dc:format><dc:type
         rdf:resource="http://purl.org/dc/dcmitype/StillImage" /><dc:title></dc:title></cc:Work></rdf:RDF></metadata><defs
   id="defs39" /><sodipodi:namedview
   pagecolor="#ffffff"
   bordercolor="#666666"
   borderopacity="1"
   objecttolerance="10"
   gridtolerance="10"
   guidetolerance="10"
   inkscape:pageopacity="0"
   inkscape:pageshadow="2"
   inkscape:window-width="640"
   inkscape:window-height="480"
   id="namedview37"
   showgrid="false"
   inkscape:zoom="6.675088"
   inkscape:cx="39.954929"
   inkscape:cy="74.580865"
   inkscape:window-x="0"
   inkscape:window-y="0"
   inkscape:window-maximized="0"
   inkscape:current-layer="Layer_1" />
<g
   id="g3">
	<g
   id="g5">
		<g
   id="g7">
			<path
   d="M26.24,8.42h-0.16h-2.94l-0.07,0.01c-8.01,0-14.51,6.5-14.51,14.51l0,0.05l-0.01,0.07v4.71l0.01,0.35     l0.03,148.23v0.08c0,8.01,6.5,14.51,14.5,14.51l0.08,0.01h153.55l0.08-0.01c8.01,0,14.51-6.5,14.51-14.51v-0.08l0.01-153.28     v-0.24c0-8.01-6.5-14.5-14.51-14.5l-0.05,0L26.24,8.42z"
   id="path9"
   fill="#FFFFFF" />
		</g>
		<g
   id="g11">
			<g
   id="g13">
				<path
   d="M65.12,121.73c0.15,0.15,0.05,0.28,0.05,0.28s-36.03,0.37-55.79,13.91c-0.81,0.56-0.73,0.44-0.73,0.44      V69.49c0,0,13.11,28.09,50.44,22.38c0.44-0.06,0.45,0.2,0.45,0.2S49.87,107.25,65.12,121.73z"
   id="path15"
   fill="#2F66B0" />
			</g>
			<g
   id="g17">
				<path
   d="M33.6,136.32c-11.67,4.48-19.85,14.98-19.85,27.21c0,11.74,7.56,22.22,18.49,26.97c0,0,1,0.4,1.14,0.41      c0.14,0,58.87,0,58.87,0s0.45-0.29,0.68-0.49c28.02-24.79,6.25-43.93-17.76-60.12c-0.43-0.29-1.04-0.36-1.04-0.36l-0.07-0.02      c-4.98-0.59-12.42-0.29-20.61,1.01c-7.97,1.27-14.98,3.22-19.55,5.26L33.6,136.32z"
   id="path19"
   fill="#EFB61C" />
			</g>
			<g
   id="g21">
				<path
   d="M191.33,22.85c0-8.01-6.5-14.5-14.51-14.5l-0.05,0H97.41L97,8.32c10.81,9.02,17.74,21.22,17.74,35.32      c0,10.05-3.81,18.62-8.29,25.34l0.06-0.03c5.74-4.07,26.04-11.11,45.64-7.99c17.33,2.76,30.79,10.61,38.59,18.41l0.59,0.58      V23.09V22.85z"
   id="path23"
   fill="#EA1D25" />
			</g>
			<g
   id="g25">
				<path
   d="M191.32,176.37V80.15l0.01-0.21l-0.59-0.58c-7.8-7.8-21.26-15.64-38.59-18.41      c-19.6-3.11-39.89,3.92-45.64,7.99l-0.23,0.2l-0.86,0.9c0,0-3.22,3.46-6.74,6.83c-3.51,3.37-8.63,7.53-8.63,7.53      c-4.41,3.31-7.09,7.7-7.09,12.51c0,4.83,3.08,9.45,7.52,12.77c0,0,7.36,5.38,12.3,9.52c4.94,4.14,10.77,9.8,10.77,9.8      c6.68,6.29,11,16.24,11,27.44c0,9.65-3.2,18.36-8.35,24.61l-7.9,9.9h68.43l0.08-0.01c8.01,0,14.51-6.5,14.51-14.51V176.37z"
   id="path27"
   fill="#0F8241" />
			</g>
			<g
   id="g29">
				<path
   d="M41.96,8.48c-14.35,7.48-16.54,25.9-11.83,42.99c6.23,22.58,22.67,38.35,39.36,33.14      c23.28-7.26,23.03-26.04,16.8-48.63C83.05,24.25,74.61,13.21,66.26,8.47L66.2,8.43H42.07L41.96,8.48z"
   id="path31"
   fill="#2F66B0" />
			</g>
			<g
   id="g33">
				<path
   d="M8.56,23.08v4.72l0.01,0.34c4.34-8.73,10.65-15.63,17.68-19.71h-0.16h-2.94l-0.07,0.02      c-8.01,0-14.51,6.5-14.51,14.51l0,0.05L8.56,23.08z"
   id="path35"
   fill="#2F66B0" />
			</g>
		</g>
	</g>
</g>
</svg>